<svg xmlns="http://www.w3.org/2000/svg" xmlns:xlink="http://www.w3.org/1999/xlink" width="636" zoomAndPan="magnify" viewBox="0 0 476.87997 104.999996" height="140" preserveAspectRatio="xMidYMid meet" version="1.0"><defs><g/></defs><g fill="#79010c" fill-opacity="1"><g transform="translate(11.358434, 72.090587)"><g><path d="M 12.644531 -7.191406 L 30.679688 -7.191406 L 34.089844 0 L 43.695312 0 L 43.695312 -1.238281 L 23.863281 -43.757812 L 19.585938 -43.757812 L -0.371094 -1.238281 L -0.371094 0 L 9.296875 0 Z M 15.679688 -15 L 21.691406 -29.316406 L 27.703125 -15 Z M 15.679688 -15 "/></g></g></g><g fill="#79010c" fill-opacity="1"><g transform="translate(61.993998, 72.090587)"><g><path d="M 2.601562 -21.691406 C 2.601562 -7.3125 13.261719 0.621094 24.730469 0.621094 C 33.035156 0.621094 40.78125 -3.097656 44.066406 -11.839844 C 45.492188 -15.804688 45.617188 -19.648438 45.367188 -23.800781 L 25.039062 -23.800781 L 25.039062 -16.175781 L 36.878906 -16.175781 C 35.019531 -9.667969 30.679688 -7.808594 24.730469 -7.808594 C 16.980469 -7.808594 12.023438 -13.449219 12.023438 -21.691406 C 12.023438 -29.441406 16.609375 -35.636719 24.730469 -35.636719 C 29.6875 -35.636719 33.160156 -33.964844 35.328125 -29.75 L 44.4375 -29.75 C 41.960938 -39.851562 33.34375 -44.003906 24.730469 -44.003906 C 13.324219 -44.003906 2.601562 -36.070312 2.601562 -21.691406 Z M 2.601562 -21.691406 "/></g></g></g><g fill="#79010c" fill-opacity="1"><g transform="translate(116.967922, 72.090587)"><g><path d="M 14.253906 -24.792969 L 38.800781 0.125 L 41.589844 0.125 L 41.589844 -43.386719 L 32.292969 -43.386719 L 32.292969 -18.78125 L 7.933594 -43.570312 L 5.019531 -43.570312 L 5.019531 0 L 14.253906 0 Z M 14.253906 -24.792969 "/></g></g></g><g fill="#79010c" fill-opacity="1"><g transform="translate(170.82627, 72.090587)"><g><path d="M 24.359375 -7.375 L 18.222656 -7.375 L 18.222656 -36.195312 L 23.863281 -36.195312 L 23.863281 -43.386719 L 3.285156 -43.386719 L 3.285156 -36.195312 L 8.925781 -36.195312 L 8.925781 -7.375 L 2.789062 -7.375 L 2.789062 0 L 24.359375 0 Z M 24.359375 -7.375 "/></g></g></g><g fill="#79010c" fill-opacity="1"><g transform="translate(205.223997, 72.090587)"><g><path d="M 1.117188 -35.328125 L 12.707031 -35.328125 L 12.707031 0 L 21.691406 0 L 21.691406 -35.328125 L 33.222656 -35.328125 L 33.222656 -43.386719 L 1.117188 -43.386719 Z M 1.117188 -35.328125 "/></g></g></g><g fill="#79010c" fill-opacity="1"><g transform="translate(246.810994, 72.090587)"><g><path d="M 22.003906 0.621094 C 31.175781 0.621094 39.171875 -4.648438 39.171875 -14.378906 L 39.171875 -43.386719 L 29.996094 -43.386719 L 29.996094 -14.566406 C 29.996094 -9.917969 26.277344 -7.5625 22.003906 -7.5625 C 17.726562 -7.5625 13.945312 -9.917969 13.945312 -14.566406 L 13.945312 -43.386719 L 4.648438 -43.386719 L 4.648438 -14.378906 C 4.648438 -4.648438 12.828125 0.621094 22.003906 0.621094 Z M 22.003906 0.621094 "/></g></g></g><g fill="#79010c" fill-opacity="1"><g transform="translate(297.880397, 72.090587)"><g><path d="M 11.464844 -13.140625 L 2.601562 -13.140625 C 2.601562 -3.65625 11.589844 0.621094 20.265625 0.621094 C 28.820312 0.433594 37.683594 -2.664062 37.683594 -12.890625 C 37.683594 -23.054688 29.8125 -24.855469 20.640625 -25.660156 C 16.113281 -26.15625 12.332031 -26.714844 12.332031 -30.554688 C 12.332031 -33.902344 15.929688 -35.949219 19.710938 -35.949219 C 23.429688 -35.949219 27.085938 -34.398438 27.582031 -30.867188 L 36.257812 -30.867188 C 36.257812 -40.597656 27.828125 -44.003906 19.710938 -44.003906 C 11.09375 -44.003906 3.222656 -39.976562 3.222656 -30.371094 C 3.222656 -21.382812 11.15625 -19.027344 19.027344 -18.347656 C 23.179688 -18.035156 28.511719 -17.664062 28.511719 -12.890625 C 28.511719 -8.367188 24.046875 -7.5 20.207031 -7.5 C 15.992188 -7.5 11.652344 -9.171875 11.464844 -13.140625 Z M 11.464844 -13.140625 "/></g></g></g><g fill="#79010c" fill-opacity="1"><g transform="translate(345.29319, 72.090587)"><g/></g></g><g fill="#79010c" fill-opacity="1"><g transform="translate(367.729451, 72.090587)"><g><path d="M 2.601562 -21.628906 C 2.601562 -7.25 13.386719 0.621094 24.792969 0.621094 C 33.839844 0.621094 43.074219 -4.152344 44.933594 -15.617188 L 36.011719 -15.617188 C 34.523438 -10.351562 30.121094 -7.808594 24.730469 -7.808594 C 16.980469 -7.808594 11.960938 -14.191406 11.960938 -21.628906 C 11.960938 -29.875 17.105469 -35.636719 24.792969 -35.636719 C 29.996094 -35.636719 33.902344 -33.46875 35.824219 -28.574219 L 44.8125 -28.574219 C 42.828125 -39.296875 33.53125 -44.003906 24.792969 -44.003906 C 13.386719 -44.191406 2.601562 -36.070312 2.601562 -21.628906 Z M 2.601562 -21.628906 "/></g></g></g><g fill="#79010c" fill-opacity="1"><g transform="translate(422.14557, 72.090587)"><g><path d="M 12.644531 -7.191406 L 30.679688 -7.191406 L 34.089844 0 L 43.695312 0 L 43.695312 -1.238281 L 23.863281 -43.757812 L 19.585938 -43.757812 L -0.371094 -1.238281 L -0.371094 0 L 9.296875 0 Z M 15.679688 -15 L 21.691406 -29.316406 L 27.703125 -15 Z M 15.679688 -15 "/></g></g></g></svg>