<?xml version="1.0" standalone="no"?>
<!DOCTYPE svg PUBLIC "-//W3C//DTD SVG 20010904//EN"
 "http://www.w3.org/TR/2001/REC-SVG-20010904/DTD/svg10.dtd">
<svg version="1.0" xmlns="http://www.w3.org/2000/svg"
 width="121.000000pt" height="117.000000pt" viewBox="0 0 121.000000 117.000000"
 preserveAspectRatio="xMidYMid meet">

<g transform="translate(0.000000,117.000000) scale(0.100000,-0.100000)"
fill="#000000" stroke="none">
<path d="M576 1124 c-21 -20 -20 -30 4 -54 16 -16 20 -33 20 -95 l0 -75 -45 0
c-37 0 -45 3 -45 18 0 11 -9 27 -20 37 -22 20 -27 64 -9 82 14 14 3 33 -17 33
-21 0 -8 -88 17 -116 37 -40 26 -54 -42 -54 l-62 0 6 60 c5 60 -4 83 -26 61
-8 -8 -8 -14 1 -23 7 -7 12 -31 12 -55 l0 -43 -42 0 c-58 0 -66 -8 -70 -60 -3
-45 -3 -45 -38 -42 -55 4 -80 35 -80 98 0 38 5 56 16 62 10 6 14 19 12 38 -2
23 -9 30 -30 32 -18 2 -30 -3 -37 -17 -11 -20 -5 -51 10 -51 5 0 9 -26 9 -58
0 -53 3 -61 33 -90 25 -24 42 -32 70 -32 37 0 37 -1 37 -40 l0 -40 -50 0 c-29
0 -50 5 -50 11 0 6 -8 9 -18 7 -9 -2 -17 -10 -17 -18 0 -12 13 -14 68 -11 l68
3 -3 -53 -3 -54 -73 -3 c-61 -2 -77 0 -98 17 -32 25 -64 13 -64 -24 0 -37 32
-49 64 -24 21 17 37 19 98 17 l73 -3 3 -49 3 -48 -68 3 c-55 3 -68 1 -68 -11
0 -12 13 -14 68 -11 l68 3 -3 -38 c-3 -37 -5 -39 -39 -42 -23 -2 -45 -12 -59
-28 -26 -27 -50 -30 -80 -12 -15 10 -22 10 -32 0 -39 -39 84 -33 126 7 13 12
35 21 54 21 32 0 32 -1 32 -49 0 -53 8 -61 59 -61 25 0 28 -3 23 -27 -2 -16
-16 -40 -30 -55 -34 -36 -109 -40 -130 -7 -19 30 -66 23 -70 -12 -2 -15 4 -32
14 -39 14 -12 20 -12 46 3 18 10 51 17 83 17 47 0 56 3 79 31 15 18 26 43 26
60 0 27 3 29 35 29 34 0 35 -1 35 -38 0 -21 -5 -43 -11 -49 -13 -13 -4 -33 16
-33 12 0 13 12 8 60 l-6 60 52 0 c50 0 51 0 51 -30 0 -17 -8 -40 -19 -51 -35
-38 -34 -136 1 -101 10 10 10 17 0 32 -17 28 -15 44 8 65 12 11 20 31 20 52 0
29 3 33 25 33 24 0 25 -2 25 -75 0 -62 -4 -79 -20 -95 -11 -11 -20 -24 -20
-29 0 -14 30 -41 45 -41 15 0 45 27 45 41 0 5 -9 18 -20 29 -16 16 -20 33 -20
95 l0 75 31 0 31 0 -6 -45 c-6 -36 -4 -45 8 -45 20 0 31 19 17 33 -6 6 -11 21
-11 34 0 20 5 23 40 23 l40 0 0 -40 c0 -22 -6 -49 -12 -60 -9 -15 -10 -22 -1
-31 22 -22 31 1 25 66 l-5 65 76 0 c101 0 107 3 107 56 0 42 2 44 28 44 18 0
40 -11 60 -32 30 -29 32 -34 26 -77 -3 -25 -13 -54 -21 -63 -18 -20 -14 -47
10 -62 36 -23 76 36 42 64 -10 8 -15 30 -15 69 0 49 -4 61 -27 83 -17 16 -42
28 -63 30 -27 2 -36 8 -38 26 -3 20 1 22 45 22 27 0 54 -5 61 -12 9 -9 15 -9
23 -1 22 22 -1 31 -66 25 -56 -4 -65 -2 -65 12 0 9 8 16 18 16 11 0 32 11 48
25 30 26 68 33 79 15 11 -18 35 -11 35 10 0 18 -5 19 -47 13 -27 -3 -57 -14
-68 -23 -11 -10 -29 -20 -40 -22 -18 -3 -20 3 -20 47 l0 50 73 3 c61 2 77 0
98 -17 32 -25 64 -13 64 24 0 37 -32 49 -64 24 -21 -17 -37 -19 -98 -17 -62 3
-73 6 -76 22 -4 18 1 19 62 13 53 -5 66 -3 66 8 0 20 -20 29 -33 16 -6 -6 -30
-11 -54 -11 -39 0 -43 2 -43 25 0 23 3 25 49 25 31 0 53 5 61 15 7 8 18 15 25
15 19 0 27 30 10 36 -18 7 -37 -4 -29 -17 12 -21 -19 -39 -67 -39 l-49 0 0 35
c0 34 1 35 38 35 30 0 45 7 70 33 27 28 32 41 32 80 0 27 7 58 16 72 22 33 4
67 -34 63 -21 -2 -28 -9 -30 -32 -2 -19 2 -32 12 -38 11 -6 16 -24 16 -60 0
-65 -34 -108 -87 -108 l-33 0 0 59 c0 51 -3 61 -20 66 -21 7 -28 49 -10 60 19
12 43 76 32 87 -18 18 -33 -2 -27 -36 5 -23 2 -36 -9 -45 -9 -8 -16 -24 -16
-37 0 -21 -5 -24 -35 -24 l-35 0 0 54 c0 40 4 55 16 60 10 4 14 16 12 38 -2
27 -8 34 -30 36 -34 4 -54 -27 -38 -58 6 -11 15 -20 21 -20 6 0 9 -23 8 -55
l-2 -55 -50 0 -50 0 6 55 c6 55 -4 78 -26 56 -8 -8 -8 -14 1 -23 7 -7 12 -29
12 -50 l0 -38 -50 0 -50 0 0 75 c0 61 4 79 20 95 12 12 17 26 13 37 -13 35
-42 42 -67 17z m49 -14 c4 -6 1 -18 -6 -26 -11 -13 -14 -13 -27 0 -8 8 -11 19
-8 25 9 14 33 14 41 1z m223 -57 c5 -17 -26 -29 -40 -15 -6 6 -7 15 -3 22 9
14 37 9 43 -7z m-368 -3 c0 -5 -4 -10 -10 -10 -5 0 -10 5 -10 10 0 6 5 10 10
10 6 0 10 -4 10 -10z m465 -20 c3 -5 1 -10 -4 -10 -6 0 -11 5 -11 10 0 6 2 10
4 10 3 0 8 -4 11 -10z m-789 -49 c-9 -14 -33 -14 -41 -1 -4 6 -1 18 6 26 11
13 14 13 27 0 8 -8 11 -19 8 -25z m224 29 c0 -5 -4 -10 -10 -10 -5 0 -10 5
-10 10 0 6 5 10 10 10 6 0 10 -4 10 -10z m340 -10 c0 -5 -4 -10 -10 -10 -5 0
-10 5 -10 10 0 6 5 10 10 10 6 0 10 -4 10 -10z m378 -27 c5 -17 -26 -29 -40
-15 -6 6 -7 15 -3 22 9 14 37 9 43 -7z m-178 -398 l0 -295 -315 0 -315 0 0
295 0 295 315 0 315 0 0 -295z m180 161 c0 -11 -19 -15 -25 -6 -3 5 1 10 9 10
9 0 16 -2 16 -4z m-945 -36 c3 -5 -1 -10 -10 -10 -9 0 -13 5 -10 10 3 6 8 10
10 10 2 0 7 -4 10 -10z m915 -70 c0 -5 -4 -10 -10 -10 -5 0 -10 5 -10 10 0 6
5 10 10 10 6 0 10 -4 10 -10z m-992 -53 c4 -21 -27 -35 -38 -17 -12 19 0 42
19 38 9 -2 17 -11 19 -21z m1095 11 c6 -19 -3 -38 -18 -38 -18 0 -28 17 -21
35 7 18 33 20 39 3z m-53 -88 c0 -5 -4 -10 -10 -10 -5 0 -10 5 -10 10 0 6 5
10 10 10 6 0 10 -4 10 -10z m-970 -40 c0 -5 -4 -10 -10 -10 -5 0 -10 5 -10 10
0 6 5 10 10 10 6 0 10 -4 10 -10z m930 -44 c0 -11 -19 -15 -25 -6 -3 5 1 10 9
10 9 0 16 -2 16 -4z m-1010 -96 c0 -5 -5 -10 -11 -10 -5 0 -7 5 -4 10 3 6 8
10 11 10 2 0 4 -4 4 -10z m620 -134 c0 -3 -4 -8 -10 -11 -5 -3 -10 -1 -10 4 0
6 5 11 10 11 6 0 10 -2 10 -4z m400 -37 c0 -12 -7 -19 -20 -19 -22 0 -29 35
-7 43 18 6 27 -2 27 -24z m-922 -2 c4 -22 -27 -35 -38 -16 -10 15 7 42 24 36
6 -2 12 -11 14 -20z m272 3 c0 -5 -4 -10 -10 -10 -5 0 -10 5 -10 10 0 6 5 10
10 10 6 0 10 -4 10 -10z m330 -20 c0 -5 -4 -10 -10 -10 -5 0 -10 5 -10 10 0 6
5 10 10 10 6 0 10 -4 10 -10z m-250 -50 c0 -5 -4 -10 -10 -10 -5 0 -10 5 -10
10 0 6 5 10 10 10 6 0 10 -4 10 -10z m106 -39 c-9 -14 -33 -14 -41 -1 -4 6 -1
18 6 26 11 13 14 13 27 0 8 -8 11 -19 8 -25z"/>
<path d="M452 586 c-23 -74 -42 -140 -42 -145 0 -6 13 -11 29 -11 25 0 31 6
41 35 11 33 14 35 55 35 41 0 44 -2 55 -35 10 -31 16 -35 45 -35 39 0 41 -20
-19 173 l-37 117 -43 0 -42 0 -42 -134z m85 -34 c-37 -4 -39 -2 -28 34 5 16
13 43 16 59 7 28 8 27 25 -30 l17 -60 -30 -3z"/>
<path d="M710 575 l0 -145 30 0 30 0 0 145 0 145 -30 0 -30 0 0 -145z"/>
<path d="M853 192 c28 -29 35 -70 16 -89 -14 -14 -3 -33 17 -33 35 0 -15 147
-50 149 -6 1 2 -12 17 -27z m37 -102 c0 -5 -4 -10 -10 -10 -5 0 -10 5 -10 10
0 6 5 10 10 10 6 0 10 -4 10 -10z"/>
</g>
</svg>
